<?xml version="1.0" standalone="no"?>
<!DOCTYPE svg PUBLIC "-//W3C//DTD SVG 20010904//EN"
 "http://www.w3.org/TR/2001/REC-SVG-20010904/DTD/svg10.dtd">
<svg version="1.0" xmlns="http://www.w3.org/2000/svg"
 width="1500.000000pt" height="1500.000000pt" viewBox="0 0 1500.000000 1500.000000"
 preserveAspectRatio="xMidYMid meet">
<metadata>
Created by potrace 1.14, written by Peter Selinger 2001-2017
</metadata>
<g transform="translate(0.000000,1500.000000) scale(0.100000,-0.100000)"
fill="#000000" stroke="none">
<path d="M5625 11556 c-17 -7 -38 -25 -47 -39 -10 -13 -38 -107 -63 -207 -25
-100 -52 -195 -60 -211 -39 -75 -90 -97 -330 -144 -104 -20 -251 -50 -325 -66
-74 -17 -146 -32 -160 -35 -14 -3 -45 -10 -70 -15 -25 -6 -56 -13 -70 -15 -14
-3 -53 -11 -87 -19 -34 -8 -221 -49 -415 -90 -194 -42 -369 -80 -388 -85 -19
-5 -48 -12 -65 -14 -36 -7 -1 0 -379 -80 -376 -81 -412 -98 -418 -193 -4 -59
46 -87 144 -80 35 2 72 7 83 10 11 3 99 22 195 42 206 43 452 98 565 127 44
11 91 22 105 25 14 2 108 22 210 43 102 22 196 41 210 44 14 2 45 9 70 15 25
5 61 13 80 16 130 21 165 29 245 50 50 13 133 33 185 44 91 19 114 23 190 36
19 3 60 10 90 16 118 21 179 22 206 4 25 -16 26 -21 21 -74 -4 -32 -27 -140
-53 -242 -41 -166 -52 -209 -68 -287 -3 -13 -8 -32 -11 -42 -3 -10 -8 -27 -10
-37 -2 -10 -15 -65 -29 -123 -30 -123 -90 -388 -102 -450 -3 -14 -7 -33 -10
-42 -3 -10 -7 -28 -10 -40 -2 -13 -6 -32 -8 -43 -3 -11 -19 -85 -36 -165 -64
-296 -63 -289 -74 -355 -3 -14 -7 -33 -10 -43 -3 -9 -7 -28 -10 -42 -2 -14
-20 -104 -39 -200 -20 -96 -39 -191 -42 -210 -3 -19 -8 -42 -10 -50 -2 -8 -6
-31 -9 -50 -3 -19 -8 -44 -10 -55 -4 -18 -54 -283 -76 -400 -5 -27 -12 -63
-15 -80 -3 -16 -7 -39 -9 -50 -2 -11 -7 -40 -11 -65 -4 -25 -9 -54 -12 -65 -2
-11 -5 -32 -8 -47 -2 -15 -8 -51 -14 -80 -6 -29 -12 -66 -15 -83 -2 -16 -14
-86 -26 -155 -25 -151 -28 -165 -35 -214 -4 -21 -9 -48 -11 -60 -2 -11 -9 -52
-14 -89 -6 -37 -17 -107 -25 -155 -9 -48 -18 -103 -21 -122 -8 -53 -13 -82
-19 -110 -3 -14 -7 -42 -10 -62 -8 -60 -14 -101 -20 -128 -3 -14 -8 -43 -11
-65 -4 -33 -18 -119 -50 -305 -2 -14 -6 -34 -8 -45 -22 -112 -22 -171 -1 -222
27 -65 102 -69 167 -9 42 39 47 55 78 256 12 80 24 152 25 160 2 8 6 38 9 65
6 44 19 121 30 180 2 11 7 40 10 65 3 25 8 55 10 66 2 12 7 39 10 60 4 22 16
93 27 159 12 66 23 134 25 150 6 37 55 323 60 350 5 26 34 192 40 230 2 17 9
53 14 80 15 75 18 89 24 131 4 22 14 77 22 124 9 47 18 96 20 110 3 14 9 48
15 76 5 28 12 64 15 80 3 16 29 155 59 309 29 154 56 291 58 305 9 48 48 236
82 400 19 91 36 176 39 190 2 14 23 108 45 210 22 102 42 196 45 210 10 55
121 548 167 745 17 72 32 137 34 145 29 128 68 267 84 298 40 78 108 114 241
127 36 3 72 8 80 10 8 2 44 7 80 10 36 3 72 8 80 10 8 2 47 6 85 10 39 3 77 8
85 10 8 2 38 7 65 10 28 3 95 11 150 19 55 8 132 17 170 20 39 3 79 8 90 10
11 2 56 7 100 11 44 4 87 8 95 10 8 1 40 6 71 9 31 4 65 8 75 10 11 2 51 7 89
10 39 4 81 8 95 11 14 3 54 7 90 10 36 3 79 7 95 9 17 2 66 6 110 10 44 4 100
9 125 11 25 3 74 7 110 10 89 7 199 16 235 21 17 1 71 6 120 9 104 7 122 10
212 34 73 20 102 84 68 150 -25 48 -57 55 -248 48 -95 -4 -181 -8 -192 -11
-11 -2 -56 -7 -100 -11 -44 -4 -93 -9 -110 -11 -16 -2 -66 -6 -110 -9 -44 -3
-89 -8 -101 -10 -11 -3 -52 -7 -90 -10 -38 -4 -78 -8 -89 -9 -11 -2 -61 -7
-110 -11 -50 -4 -98 -9 -107 -11 -9 -1 -48 -6 -85 -9 -37 -4 -75 -8 -83 -10
-8 -2 -51 -7 -95 -11 -44 -3 -82 -7 -85 -9 -3 -2 -45 -6 -95 -10 -49 -4 -98
-9 -108 -11 -10 -2 -46 -6 -80 -9 -34 -3 -80 -8 -102 -11 -22 -2 -69 -7 -105
-9 -36 -3 -76 -7 -90 -10 -14 -2 -56 -7 -95 -11 -38 -3 -72 -8 -75 -9 -3 -2
-29 -6 -57 -10 -29 -3 -67 -11 -85 -16 -46 -13 -162 -11 -192 3 -14 6 -28 19
-31 29 -3 10 3 71 15 135 31 172 34 201 19 237 -15 36 -46 66 -69 66 -8 0 -29
-6 -45 -13z"/>
<path d="M6655 10193 c-66 -15 -158 -47 -210 -74 l-60 -30 -261 -1 -261 0 0
-614 c0 -338 3 -614 6 -615 3 0 116 -1 251 -1 l245 0 81 -39 c295 -143 636
-91 854 131 75 76 92 99 84 112 -4 7 -3 8 4 4 18 -11 99 168 117 259 14 67 16
189 5 251 -22 131 -101 318 -125 297 -4 -5 -5 -3 -1 4 8 15 -11 40 -86 114
-142 141 -304 207 -513 207 -60 0 -119 -2 -130 -5z"/>
<path d="M8683 9709 c-18 -3 -40 -12 -49 -20 -14 -11 -139 -257 -171 -335 -7
-16 -28 -67 -48 -114 -80 -187 -266 -675 -320 -837 -23 -71 -34 -89 -82 -134
-56 -53 -174 -192 -318 -374 -44 -55 -91 -113 -106 -130 -15 -16 -66 -75 -114
-130 -85 -97 -364 -380 -455 -461 -203 -180 -294 -244 -415 -290 -58 -22 -81
-25 -138 -21 -89 6 -127 40 -142 127 -3 19 -8 37 -11 41 -3 5 -5 46 -5 91 -1
124 40 359 107 618 20 74 37 142 39 150 2 8 13 45 25 82 11 37 21 69 20 70 0
2 27 82 61 178 113 325 105 298 88 328 -9 16 -32 33 -59 43 -40 15 -49 15 -80
3 -76 -32 -148 -152 -225 -374 -52 -151 -131 -500 -170 -750 -3 -19 -7 -46
-10 -60 -2 -14 -7 -43 -10 -65 -3 -22 -9 -64 -14 -94 -12 -78 -5 -248 13 -319
40 -156 148 -284 260 -308 198 -44 412 35 676 250 41 33 80 65 86 71 6 5 42
37 80 70 87 75 337 326 425 425 122 138 154 175 208 243 30 37 56 66 57 64 1
-1 -20 -81 -47 -177 -47 -165 -182 -686 -193 -740 -2 -14 -16 -74 -31 -135
-15 -60 -29 -123 -31 -140 -3 -16 -7 -36 -10 -44 -5 -16 -51 -226 -59 -271 -3
-16 -16 -84 -29 -152 -14 -68 -27 -134 -29 -148 -3 -14 -12 -63 -21 -110 -8
-47 -18 -98 -21 -115 -20 -116 -25 -145 -30 -185 -3 -25 -8 -52 -10 -60 -2 -8
-6 -33 -10 -55 -3 -22 -10 -65 -15 -95 -5 -30 -12 -75 -15 -100 -3 -25 -8 -56
-10 -70 -6 -37 -13 -88 -20 -150 -4 -30 -7 -56 -8 -56 -2 -2 -518 364 -562
399 -5 4 -152 111 -325 238 -173 127 -341 251 -372 276 -32 24 -58 42 -58 40
0 -4 77 -68 280 -230 8 -7 101 -80 205 -163 258 -204 431 -339 730 -567 50
-38 90 -74 89 -81 -3 -56 -17 -157 -23 -161 -8 -4 -27 8 -276 185 -424 300
-476 337 -615 440 -72 53 -156 116 -165 123 -70 55 -155 117 -155 114 0 -3 28
-28 63 -55 78 -62 186 -149 212 -170 11 -10 40 -33 65 -52 25 -19 47 -37 50
-40 4 -5 76 -61 335 -260 39 -30 162 -124 275 -208 127 -96 205 -161 204 -171
-2 -34 -15 -145 -17 -147 -5 -4 -791 505 -980 635 -77 52 -137 91 -137 87 0
-4 319 -237 390 -285 34 -23 148 -102 240 -166 25 -17 83 -58 130 -90 109 -76
262 -183 309 -216 l36 -25 -4 -140 c-2 -109 0 -148 12 -176 27 -64 83 -83 147
-49 40 21 64 54 84 117 11 33 21 61 23 63 2 3 99 -64 228 -159 132 -97 410
-305 424 -316 9 -7 59 -47 111 -89 52 -42 104 -84 115 -93 11 -10 45 -38 75
-62 30 -24 79 -66 109 -93 30 -26 69 -60 87 -73 l33 -25 34 38 c18 21 74 83
123 139 49 55 118 133 154 174 36 40 72 80 80 90 12 13 91 101 175 194 195
215 301 332 305 336 4 3 53 57 110 120 56 63 130 145 164 181 85 92 121 130
301 329 87 96 178 195 201 220 23 25 54 59 69 75 90 100 195 214 225 246 19
20 64 70 100 110 36 40 76 84 89 98 13 14 53 59 90 100 36 41 71 79 77 85 5 6
34 38 64 71 29 33 86 96 125 140 40 44 96 107 125 140 30 33 57 62 62 63 21 9
1 34 -81 105 -49 42 -91 77 -94 77 -3 0 -91 -102 -195 -227 -267 -322 -497
-595 -706 -838 -99 -115 -218 -255 -265 -310 -47 -55 -88 -102 -91 -105 -3 -3
-27 -32 -54 -65 -27 -33 -54 -64 -60 -70 -7 -5 -74 -84 -151 -175 -77 -91
-149 -176 -161 -190 -61 -68 -369 -435 -605 -720 -85 -102 -161 -194 -171
-205 -9 -11 -26 -31 -37 -44 l-20 -23 -93 74 c-219 176 -519 392 -858 618
-102 68 -186 124 -188 125 -2 2 5 30 15 64 l19 61 140 -103 c243 -182 969
-707 975 -707 4 0 60 61 125 137 66 75 124 141 129 147 6 6 116 133 245 281
128 149 236 272 240 275 3 3 48 55 100 115 52 61 109 126 126 145 35 39 366
418 624 715 90 105 167 192 170 195 3 3 92 104 197 225 105 121 268 308 362
415 94 107 171 198 171 201 0 4 -39 40 -87 80 -49 40 -90 76 -93 79 -3 3 -14
13 -26 21 -11 8 -48 38 -82 67 -102 90 -91 89 -147 19 -27 -34 -319 -395 -649
-802 -330 -407 -726 -895 -880 -1085 -154 -190 -318 -392 -365 -450 -47 -58
-114 -141 -149 -185 -36 -44 -71 -86 -78 -94 -14 -16 -48 6 -539 335 -415 279
-414 278 -415 288 0 19 141 430 228 661 51 135 234 580 253 615 4 8 20 42 35
75 89 204 266 569 343 709 16 28 47 87 71 131 24 44 54 97 67 117 12 21 23 40
23 43 0 10 158 269 258 420 201 307 359 504 591 735 192 192 275 256 440 339
88 44 156 7 178 -99 7 -32 7 -207 0 -242 -3 -14 -15 -89 -27 -165 -34 -221
-69 -275 -265 -409 -228 -155 -439 -329 -625 -514 -145 -144 -224 -239 -309
-370 -147 -227 -168 -444 -53 -545 73 -65 188 -72 302 -18 163 78 312 196 489
388 191 207 399 527 497 763 59 143 62 148 110 217 72 104 161 169 304 225 30
12 123 52 205 90 161 75 286 124 570 227 223 80 232 85 240 123 18 81 -40 159
-115 155 -79 -4 -109 -14 -455 -147 -355 -137 -412 -160 -485 -195 -74 -35
-132 -45 -150 -27 -12 12 -15 58 -6 109 3 22 10 65 15 95 5 30 8 100 6 155 -5
205 -88 385 -200 436 -83 38 -238 13 -395 -64 -73 -35 -217 -130 -270 -177
-19 -18 -67 -60 -106 -95 -221 -198 -537 -619 -834 -1110 -113 -189 -137 -230
-220 -380 -18 -33 -40 -73 -50 -90 -110 -189 -416 -818 -520 -1069 -33 -79
-91 -153 -110 -141 -17 10 -4 140 28 281 17 71 49 217 71 324 54 254 51 244
75 343 9 37 23 97 32 134 9 37 17 74 19 82 3 13 28 115 80 321 3 8 14 51 25
95 12 44 23 87 25 95 48 211 261 901 410 1330 61 175 216 583 260 685 37 84
83 205 89 232 14 64 -36 116 -101 102z m1144 -2415 c4 -10 0 -22 -9 -28 -9 -6
-26 -36 -39 -66 -55 -129 -165 -296 -279 -422 -91 -101 -352 -318 -401 -333
-11 -4 -31 0 -44 9 -41 27 -28 71 56 188 65 91 95 128 199 253 100 120 297
289 417 357 28 16 57 36 63 43 16 20 29 19 37 -1z m1083 -757 c0 -2 -12 -14
-27 -28 l-28 -24 24 28 c23 25 31 32 31 24z m-223 -270 c-200 -249 -575 -711
-597 -737 -8 -10 -29 -35 -46 -57 -17 -21 -112 -137 -210 -258 -99 -121 -215
-265 -259 -320 -44 -55 -84 -105 -90 -111 -15 -16 -69 -81 -245 -299 -89 -110
-176 -218 -194 -240 -41 -50 -296 -364 -345 -425 -19 -25 -41 -51 -48 -58 -10
-11 -75 28 -350 213 -379 254 -714 482 -726 494 -9 9 19 129 34 145 4 4 49
-23 101 -62 51 -38 165 -121 253 -185 88 -63 183 -132 210 -152 79 -58 428
-305 430 -305 2 0 45 48 96 108 51 59 96 109 99 112 7 7 125 142 206 236 38
44 102 118 143 165 133 152 186 212 196 223 8 9 172 197 249 286 64 74 171
196 176 200 3 3 48 55 100 115 52 61 97 112 100 115 3 3 82 93 175 200 239
275 383 439 419 480 17 19 60 69 96 110 36 41 70 80 75 86 6 6 34 39 63 73
102 116 61 60 -111 -152z"/>
<path d="M11675 7583 c-66 -12 -154 -29 -195 -37 -41 -9 -91 -18 -110 -21 -19
-3 -46 -8 -60 -10 -58 -12 -82 -16 -210 -40 -74 -14 -145 -27 -158 -29 -12 -3
-85 -17 -162 -31 -159 -30 -151 -28 -285 -54 -55 -11 -153 -29 -217 -41 l-116
-22 46 -40 c26 -22 58 -50 72 -61 14 -12 129 -109 255 -216 127 -108 241 -205
255 -217 14 -12 104 -88 200 -169 96 -81 199 -168 229 -194 29 -25 61 -53 71
-61 10 -8 39 -33 66 -55 26 -22 98 -82 158 -133 118 -100 127 -108 222 -189
33 -28 66 -53 74 -55 11 -2 14 20 16 107 3 172 14 729 20 1075 3 173 7 361 8
418 l2 102 -30 -2 c-17 -1 -85 -12 -151 -25z"/>
<path d="M6085 5200 c10 -11 20 -20 23 -20 3 0 -3 9 -13 20 -10 11 -20 20 -23
20 -3 0 3 -9 13 -20z"/>
</g>
</svg>
